# xmcd
#
# Track frame offsets:
#	150
#	21313
#	45913
#	69343
#	89130
#	107860
#	129265
#	147838
#	167680
#	187755
#	208463
#	227993
#	239868
#	262428
#	284035
#	308195
#
# Disc length: 4347 seconds
#
# Revision: 0
# Processed by: cddbd v1.5.2PL0 Copyright (c) Steve Scherf et al.
# Submitted via: EZCDAudioConverter 7.1.5.1
#
DISCID=fc10f910
DTITLE=群星 - 闭上眼睛去旅行 DISK-B
DYEAR=2003
DGENRE=
TTITLE0=王菲 - 矜持
TTITLE1=许茹芸 - 如果云知道
TTITLE2=张信哲 - 用情
TTITLE3=范怡文 - 你是我前世的知己
TTITLE4=戴佩妮 - 街角的祝福
TTITLE5=优客李林 - 认错
TTITLE6=陈淑桦 - 梦醒时分
TTITLE7=柯以敏 - 爱我
TTITLE8=蔡琴 - 点亮霓虹灯
TTITLE9=张宇 - 用心良苦
TTITLE10=邝美云 - 容易受伤的女人
TTITLE11=齐豫 - 橄榄树
TTITLE12=顺子 - 回家
TTITLE13=彭羚 - 囚鸟
TTITLE14=巫启贤 - 太傻
TTITLE15=曾淑勤 - 鲁冰花
EXTD=
EXTT0=
EXTT1=
EXTT2=
EXTT3=
EXTT4=
EXTT5=
EXTT6=
EXTT7=
EXTT8=
EXTT9=
EXTT10=
EXTT11=
EXTT12=
EXTT13=
EXTT14=
EXTT15=
PLAYORDER=
